<?xml version="1.0" standalone="no"?><svg xmlns="http://www.w3.org/2000/svg" viewBox="0 0 1440 320"><path fill="#3a86ff" fill-opacity="1" d="M0,32L30,37.3C60,43,120,53,180,85.3C240,117,300,171,360,176C420,181,480,139,540,106.7C600,75,660,53,720,90.7C780,128,840,224,900,245.3C960,267,1020,213,1080,176C1140,139,1200,117,1260,122.7C1320,128,1380,160,1410,176L1440,192L1440,320L1410,320C1380,320,1320,320,1260,320C1200,320,1140,320,1080,320C1020,320,960,320,900,320C840,320,780,320,720,320C660,320,600,320,540,320C480,320,420,320,360,320C300,320,240,320,180,320C120,320,60,320,30,320L0,320Z"></path></svg>